<svg width="56" height="56" viewBox="0 0 56 56" fill="none" xmlns="http://www.w3.org/2000/svg">
<path d="M28.0008 32.9223C30.7133 32.9223 32.9336 30.7129 32.9336 27.9895C32.9336 26.9176 32.5836 25.9223 32.0039 25.1129C31.1071 23.877 29.6524 23.0566 28.0118 23.0566C26.3711 23.0566 24.9164 23.866 24.0196 25.1129C23.4399 25.9223 23.0899 26.9176 23.0899 27.9895C23.0789 30.7129 25.2883 32.9223 28.0008 32.9223Z" fill="white"/>
<path d="M38.7625 21.9734V17.8391V17.2266H38.15L34.0156 17.2375L34.0375 21.9844L38.7625 21.9734Z" fill="white"/>
<path d="M35.6562 27.9996C35.6562 32.2215 32.2219 35.6559 28 35.6559C23.7781 35.6559 20.3438 32.2215 20.3438 27.9996C20.3438 26.9824 20.5516 26.009 20.9125 25.123H16.7344V36.5855C16.7344 38.0621 17.9375 39.2652 19.4141 39.2652H36.5859C38.0625 39.2652 39.2656 38.0621 39.2656 36.5855V25.123H35.0875C35.4594 26.009 35.6562 26.9824 35.6562 27.9996Z" fill="white"/>
<path d="M28 0C12.5344 0 0 12.5344 0 28C0 43.4656 12.5344 56 28 56C43.4656 56 56 43.4656 56 28C56 12.5344 43.4656 0 28 0ZM42 25.1234V36.5859C42 39.5719 39.5719 42 36.5859 42H19.4141C16.4281 42 14 39.5719 14 36.5859V25.1234V19.4031C14 16.4172 16.4281 13.9891 19.4141 13.9891H36.5859C39.5719 13.9891 42 16.4172 42 19.4031V25.1234Z" fill="white"/>
</svg>
